<svg width="35" height="41" viewBox="0 0 35 41" fill="none" xmlns="http://www.w3.org/2000/svg">
<rect width="34.2239" height="40.4001" rx="3" fill="white"/>
<path d="M30.2239 24.0577H28.6849V31.773H30.2239V24.0577Z" fill="#1E1E1E"/>
<path d="M28.6849 31.7731H27.1459V33.3222H28.6849V31.7731Z" fill="#1E1E1E"/>
<path d="M28.6849 20.9695H27.1459V24.0577H28.6849V20.9695Z" fill="#1E1E1E"/>
<path d="M27.1459 7.08813H25.5967V20.9696H27.1459V7.08813Z" fill="#1E1E1E"/>
<path d="M27.1459 33.3222H24.0577V34.8612H27.1459V33.3222Z" fill="#1E1E1E"/>
<path d="M25.5967 5.54913H24.0577V7.08814H25.5967V5.54913Z" fill="#1E1E1E"/>
<path d="M24.0577 4H20.9696V5.54913H24.0577V4Z" fill="#1E1E1E"/>
<path d="M24.0577 34.8612H10.1763V36.4002H24.0577V34.8612Z" fill="#1E1E1E"/>
<path d="M22.5187 22.5187H20.9696V24.0577H22.5187V22.5187Z" fill="#1E1E1E"/>
<path d="M24.0577 8.62708H20.9696V17.8915H24.0577V8.62708Z" fill="#1E1E1E"/>
<path d="M20.9696 27.1458H19.4306V28.6848H20.9696V27.1458Z" fill="#1E1E1E"/>
<path d="M20.9696 5.54913H19.4306V7.08814H20.9696V5.54913Z" fill="#1E1E1E"/>
<path d="M19.4306 7.08813H17.8814V19.4306H19.4306V7.08813Z" fill="#1E1E1E"/>
<path d="M19.4306 28.6849H16.3424V30.2341H19.4306V28.6849Z" fill="#1E1E1E"/>
<path d="M16.3424 27.1458H17.8815V25.6068H19.4306V24.0577H14.8034V25.6068H16.3424V27.1458Z" fill="#1E1E1E"/>
<path d="M17.8814 19.4306H16.3424V20.9696H17.8814V19.4306Z" fill="#1E1E1E"/>
<path d="M16.3424 7.08813H14.8034V19.4306H16.3424V7.08813Z" fill="#1E1E1E"/>
<path d="M14.8034 5.54913H13.2543V7.08814H14.8034V5.54913Z" fill="#1E1E1E"/>
<path d="M13.2543 22.5187H11.7153V24.0577H13.2543V22.5187Z" fill="#1E1E1E"/>
<path d="M13.2543 4H10.1763V5.54913H13.2543V4Z" fill="#1E1E1E"/>
<path d="M13.2543 8.62708H10.1763V17.8915H13.2543V8.62708Z" fill="#1E1E1E"/>
<path d="M10.1763 33.3222H7.08814V34.8612H10.1763V33.3222Z" fill="#1E1E1E"/>
<path d="M10.1763 5.54913H8.62716V7.08814H10.1763V5.54913Z" fill="#1E1E1E"/>
<path d="M8.62715 7.08813H7.08814V20.9696H8.62715V7.08813Z" fill="#1E1E1E"/>
<path d="M7.08815 31.7731H5.53902V33.3222H7.08815V31.7731Z" fill="#1E1E1E"/>
<path d="M7.08815 20.9695H5.53902V24.0577H7.08815V20.9695Z" fill="#1E1E1E"/>
<path d="M5.53901 24.0577H4.00001V31.773H5.53901V24.0577Z" fill="#1E1E1E"/>
</svg>
