<svg width="171" height="38" viewBox="0 0 171 38" fill="none" xmlns="http://www.w3.org/2000/svg">
<path d="M166.006 0.614258H5.4V2.6714H3.48572V4.72854H0.614288V19.1285H2.52857V22.2143H5.4V24.2714L109.467 25.0678V31.1022H107.139V36.6143H114.863V34.5571H117.734V31.4714H120.606V25.3H166.006V22.9051H167.921V20.1571H169.835V4.72854H167.921V2.51731H166.006V0.614258Z" fill="white"/>
<path d="M5.4 0.614258H166.006V2.51731H167.921V4.72854H169.835V20.1571H167.921V22.9051H166.006V25.3H120.606V31.4714H117.734V34.5571H114.863V36.6143H105.225H107.139V31.1022H109.467V25.0678L5.4 24.2714V22.2143H2.52857V19.1285H0.614288V4.72854H3.48572V2.6714H5.4V0.614258Z" stroke="#3D2817" stroke-width="1.22857"/>
</svg>